<?xml version="1.0" encoding="utf-8"?>
<!-- Generator: Adobe Illustrator 19.2.1, SVG Export Plug-In . SVG Version: 6.00 Build 0)  -->
<svg version="1.1" id="Layer_1" xmlns="http://www.w3.org/2000/svg" xmlns:xlink="http://www.w3.org/1999/xlink" x="0px" y="0px"
	 viewBox="0 0 745.1 227.1" style="enable-background:new 0 0 745.1 227.1;" xml:space="preserve">
<style type="text/css">
	.st0{fill:#CB3837;}
	.st1{fill:#FFFFFF;}
	.st2{enable-background:new    ;}
</style>
<path class="st0" d="M0,25.7v172.7h143.9v28.8H259v-28.8h259V25.7"/>
<path class="st1" d="M28.8,54.4v115.1h57.6V83.2h28.8v86.3H144V54.4h28.8v143.9h57.6V83.2H259v57.6h-28.8v28.8h57.6V54.4h28.8v115.1
	h57.6V83.2H403v86.3h28.8V83.2h28.8v86.3h28.8V54.4"/>
<rect x="518" class="st0" width="227.1" height="227.1"/>
<g class="st2">
	<path class="st1" d="M546,32.2h166.1v33.2h-99.7v33.2h99.7v99.7H546v-33.2h99.7v-33.2H546V32.2z"/>
</g>
<rect x="144.9" y="39.1" class="st0" width="27.8" height="43"/>
<rect x="288.7" y="39.1" class="st0" width="27.9" height="43"/>
</svg>
